<mxfile>
    <diagram>
        <mxGraphModel dx="320" dy="200" pageWidth="320" pageHeight="200">
            <root>
                <mxCell id="0">
                </mxCell>
                <mxCell id="1" parent="0">
                </mxCell>
                <mxCell id="6" vertex="1" parent="0">
                    <mxGeometry x="0" y="200" width="50" height="100" as="geometry">
                    </mxGeometry>
                </mxCell>
                <mxCell id="8" vertex="1" parent="0">
                    <mxGeometry x="100" y="100" width="50" height="200" as="geometry">
                    </mxGeometry>
                </mxCell>
                <mxCell id="9" vertex="1" parent="0">
                    <mxGeometry x="200" y="250" width="50" height="50" as="geometry">
                    </mxGeometry>
                </mxCell>
                <mxCell id="11" vertex="1" parent="0">
                    <mxGeometry x="300" y="150" width="50" height="150" as="geometry">
                    </mxGeometry>
                </mxCell>
            </root>
        </mxGraphModel>
    </diagram>
</mxfile>
